<svg width="441" height="232" fill="none" xmlns="http://www.w3.org/2000/svg">
    <path d="M23.811 98.401c-.222.088-.458-.035-.71-.37a9.64 9.64 0 00-.836-1.064l.76-.139c-.508-.956-.768-1.862-.781-2.718.024-.91.08-1.779.167-2.606.078-.872.12-1.69.123-2.454.041-.818-.175-1.613-.649-2.385.256.096.408.02.458-.227.088-.302.121-.642.1-1.02a3.85 3.85 0 00-.158-1.258 7.15 7.15 0 00-.271-1.095c.337-1.54.529-3.101.573-4.683.09-1.59.14-3.149.146-4.676a91.973 91.973 0 01.103-4.525 26.12 26.12 0 01.65-4.268c.627-.21 1.311-.24 2.052-.09.78.096 1.317.307 1.615.634 1.225-1.369 2.247-2.939 3.066-4.71A199.467 199.467 0 0132.7 55.57a23.251 23.251 0 013.136-4.723c1.217-1.415 2.863-2.432 4.939-3.05a163.3 163.3 0 004.196 1.877 11.255 11.255 0 013.99 2.703c.41.163.801.354 1.174.572l1.231.49.19 1.038a7.546 7.546 0 011.979 1.854c.603.7 1.15 1.483 1.64 2.346.529.81 1.038 1.646 1.529 2.51.49.864 1.014 1.65 1.572 2.359a2.47 2.47 0 000 .787c.08.176.164.375.252.597a2.5 2.5 0 01.334.654c.088.223.165.518.233.888.261 2.479-.182 4.61-1.332 6.395-1.112 1.73-2.592 3.265-4.441 4.605a49.974 49.974 0 01-5.912 3.586c-2.138 1.06-4.056 2.15-5.754 3.272.033.184.142.26.326.226.23-.042.325.084.283.378 1.533.577 2.714 1.052 3.543 1.425.875.364 1.669.672 2.38.923.75.197 1.537.338 2.362.426.87.079 2.049.149 3.535.21 1.486.062 2.641.136 3.466.224.862.033 1.628.06 2.298.08.662-.026 1.369-.06 2.122-.103.754-.043 1.765-.109 3.033-.198a6.361 6.361 0 011.571 1.572 9.307 9.307 0 011.07 1.95c.264.667.409 1.332.434 1.995.064.608-.032 1.126-.287 1.555.08.176.212.247.396.213a1.77 1.77 0 01.69-.126c-.28.29-.506.617-.677.982l-.514 1.096a5.148 5.148 0 01-.664 1.051c-.226.328-.565.557-1.017.687-1.54.95-3.653 1.361-6.34 1.233-2.688-.127-6.173-.586-10.456-1.375-2.114-.375-3.848-.75-5.2-1.121a41.156 41.156 0 01-3.561-1.136 28.567 28.567 0 01-2.896-1.401 251.85 251.85 0 01-3.135-1.93.423.423 0 00-.226.328c.025.138-.027.243-.157.315.107 1.888.012 3.455-.284 4.701-.25 1.238-.726 2.542-1.428 3.91-.762-.003-1.256.159-1.482.486-.18.319-.432.628-.759.926-.443.176-.793.217-1.048.12a2.725 2.725 0 01-.685-.232 7.25 7.25 0 00-.697-.301c-.255-.097-.632-.075-1.13.064-.214-.39-.424-.757-.63-1.101-.213-.39-.615-.507-1.205-.351.062-.441.045-.796-.051-1.064a3.696 3.696 0 00-.359-.793l-.428-.78c-.096-.268-.109-.6-.038-.994zm17.297-35.858a17.265 17.265 0 01-1.56 2.79c-.611.827-1.213 1.7-1.807 2.62a14.901 14.901 0 00-1.41 2.833c-.393.978-.59 2.11-.593 3.399 1.891-.585 3.82-1.487 5.787-2.705 1.957-1.265 3.809-2.463 5.553-3.593-.541-1.665-1.388-2.917-2.54-3.755-1.16-.884-2.304-1.414-3.43-1.589zM72.117 93.271a3.606 3.606 0 01-1.069-1.163c-.23-.482-.674-.83-1.332-1.044-.218-.675-.5-1.434-.843-2.277a59.006 59.006 0 00-.989-2.68 69.108 69.108 0 01-.862-2.775c-.223-.96-.337-1.846-.342-2.655.016-.433.083-.85.2-1.253.163-.411.307-.795.432-1.152.163-.412.257-.81.282-1.196a1.86 1.86 0 00-.133-1.12c.267-.097.403-.265.407-.504.042-.294.255-.428.64-.404.138-1.074.31-2.083.519-3.027.208-.945.444-1.87.707-2.776l.788-2.72c.301-.961.539-2.006.713-3.135-.917-.595-1.635-1.274-2.155-2.037a19.15 19.15 0 01-1.24-2.491 26.434 26.434 0 01-.893-2.555 14.977 14.977 0 00-1.058-2.667 7.047 7.047 0 011.637-2.374 10.488 10.488 0 012.315-1.783 16.43 16.43 0 012.957-1.4c1.062-.433 2.19-.902 3.383-1.407 2.083-1.097 3.966-1.99 5.648-2.68a55.863 55.863 0 014.934-1.905 84.327 84.327 0 015.053-1.641 137.32 137.32 0 006.038-2.108c.072.13.153.187.245.17l.484-.088c.197.297.48.412.848.345a.785.785 0 00-.132-.334l-.064-.346a1.15 1.15 0 01.358.006c.193.013.34.034.44.063.146.02.262 0 .345-.063.075-.11.069-.275-.019-.498a7.857 7.857 0 002.582 2.03 17.7 17.7 0 003.191 1.062c.122.407.177.706.164.9.034.184.044.373.032.566-.021.147-.01.335.032.566.034.185.13.453.29.806-.51 1.38-1.185 2.505-2.025 3.375a11.078 11.078 0 01-2.68 2.136 19.419 19.419 0 01-3.232 1.45c-1.117.396-2.276.823-3.477 1.281a28.14 28.14 0 00-3.509 1.501 15.487 15.487 0 00-3.357 2.332c-.394-.071-.747-.054-1.061.051-.276.05-.567.152-.873.303a19.61 19.61 0 01-1.054.48c-.352.16-.812.243-1.381.252a3.32 3.32 0 01-1.186.933c-.435.223-.893.45-1.375.68.323.466.508.957.554 1.473.093.508.242.933.447 1.277 1.968-.17 4.108-.562 6.423-1.176 2.305-.661 4.578-1.244 6.817-1.75.088.222.094.388.02.497-.076.11-.093.28-.05.51.464.201.919.476 1.363.823L98.346 61c.481.293.955.54 1.42.741.456.155.956.159 1.5.011.315.42.564.875.749 1.366.184.49.212 1.034.083 1.63a56.209 56.209 0 00-2.353 2.362 27.867 27.867 0 01-2.459 2.167 15.237 15.237 0 01-2.811 1.803c-1.046.525-2.218.883-3.516 1.073l-.621.114c-.138.025-.34-.034-.603-.176-.418.315-1.023.521-1.814.618-.754.043-1.362.226-1.827.55-.686-.113-1.467-.09-2.342.07-.828.153-1.586.172-2.273.06a44.963 44.963 0 00-1.653 4.237 29.11 29.11 0 00-1.177 4.507c1.938-.069 3.525-.24 4.76-.514a41.13 41.13 0 003.47-.922c1.08-.341 2.183-.686 3.309-1.035 1.171-.358 2.613-.67 4.325-.936 1.05-.764 2.295-1.374 3.734-1.828a27.37 27.37 0 004.036-1.741c.486.054.928.26 1.326.615.389.31.76.648 1.112 1.013.389.31.771.574 1.143.792.373.218.804.234 1.294.049.272.188.461.44.566.754.151.307.274.594.371.862.143.26.3.47.471.63.164.113.425.112.785-.001-.546 1.96-1.284 3.525-2.212 4.697a12.173 12.173 0 01-3.243 2.954c-1.243.752-2.691 1.423-4.344 2.012a153.152 153.152 0 00-5.43 1.924c-.489.186-.926.266-1.311.24a2.638 2.638 0 00-1.074-.017c-1.247.467-2.747.98-4.5 1.54a34.505 34.505 0 01-5.267 1.25 24.146 24.146 0 01-5.306.257c-1.733-.111-3.249-.597-4.547-1.456zM119.405 88.042c-.46.084-1.186.146-2.179.185-.879-.65-1.74-1.589-2.583-2.818a27.011 27.011 0 01-2.107-4.12 27.206 27.206 0 01-1.26-4.562c-.24-1.577-.216-3.012.071-4.305-.008-.046.098-.637.319-1.775.267-1.145.598-2.589.995-4.33.387-1.788.837-3.754 1.35-5.899.505-2.19 1.018-4.335 1.539-6.433a152.26 152.26 0 011.527-5.716c.534-1.767 1.021-3.144 1.459-4.13.297-.722.551-1.413.764-2.072.259-.667.504-1.284.733-1.85.355-.924.677-1.77.965-2.538.326-.822.691-1.557 1.097-2.204a9.412 9.412 0 011.518-1.851c.56-.58 1.271-1.115 2.133-1.607.594.13 1.124.295 1.589.496.456.154.879.387 1.269.697l.384.931c.151.306.331.512.54.617.247.05.44.062.578.037.624.029 1.16.097 1.608.206.485.054.986.058 1.5.011.235.243.447.49.635.742.235.243.465.463.692.66 1.164 1.17 2.16 2.323 2.985 3.46.826 1.135 1.074 2.497.745 4.083l.208.749c.289.28.459.56.509.836.051.277.076.678.077 1.202.021.378.051.802.089 1.272.075.415.229.864.459 1.346l.585.465c.803.234 1.551.288 2.241.162.921-.169 1.712-.528 2.373-1.079a41.178 41.178 0 001.844-1.625c.439-.462.845-.846 1.217-1.153a5.864 5.864 0 011.224-.725 96.535 96.535 0 012.183-2.903c.694-.89 1.411-1.785 2.151-2.683a71.14 71.14 0 004.051-5.177c1.279-1.856 2.169-4.022 2.669-6.498a3.2 3.2 0 011.638-.8 4.946 4.946 0 012.01.06c.686.113 1.381.272 2.085.477.155.067.282.115.383.144.146.021.297.065.452.132.093.508.384.931.874 1.27.264.143.446.229.546.258l.302.088c.41.163.747.316 1.011.459.31.133.564.35.761.647.641 1.17 1.508 2.013 2.601 2.528a3.47 3.47 0 00.347 1.51c.222.436.468.868.736 1.296.126.167.228.34.308.515.071.13.174.302.308.516l-1.544.14.485 1.485c.281.76.372 1.648.272 2.668-.053 1.011-.191 1.823-.412 2.436.344 1.368.592 2.467.744 3.297.143.785.231 1.532.265 2.24a9.89 9.89 0 01-.117 2.096c-.075.634-.21 1.327-.406 2.078.823 3.473.994 6.756.511 9.849a85.4 85.4 0 01-1.687 8.75 17.61 17.61 0 01-.25.975c-.088.302-.153.6-.194.894a9.85 9.85 0 00-1.293.738c-.381.26-.734.54-1.06.838a12.65 12.65 0 01-1.368 1.108 4.689 4.689 0 01-1.538.568c-2.504-1.21-4.164-3.79-4.98-7.743-.77-3.96-.839-9.168-.209-15.626.28-.29.355-.661.225-1.114l-.139-.762-.703.057c-.23.043-.433.104-.609.183-.176.08-.276.313-.301.7a144.13 144.13 0 01-4.228 4.207 67.936 67.936 0 01-4.749 4.09 43.938 43.938 0 01-5.234 3.39c-1.778.946-3.565 1.583-5.36 1.912-4.604.843-8.509-.873-11.715-5.15l-.849-1.132-.489 1.234a39.44 39.44 0 00-.507 1.523c-.204.705-.411 1.53-.619 2.474-.163.936-.298 1.89-.406 2.864-.062.965.017 1.785.235 2.46-.46.61-.907 1.288-1.342 2.035a6.365 6.365 0 00-.701 2.417 1.22 1.22 0 00.057.705c.08.176.187.371.321.585.013.332-.037.58-.15.743a4.607 4.607 0 01-.408.504c-.188.273-.372.569-.552.888a4.008 4.008 0 00-.47.944 5.284 5.284 0 00-.043.938c.005.285.005.547.001.787.093.507.087.866-.018 1.076a38.537 38.537 0 01-.801 2.65c-.213.66-.451 1.18-.714 1.562-.264.382-.571.653-.923.812-.297.198-.675.339-1.136.423zM198.557 72.827c-1.976.648-3.834.893-5.576.735a14.157 14.157 0 01-4.88-1.323 16.32 16.32 0 01-4.014-2.841 21.585 21.585 0 01-3.062-3.874c-.986-3.062-1.389-5.921-1.207-8.577.173-2.703.684-5.252 1.531-7.649a44.18 44.18 0 013.102-6.862c1.267-2.188 2.477-4.293 3.63-6.316.348.08.601.033.76-.14.205-.18.355-.398.451-.654l.426-.794c.189-.273.412-.48.672-.623a3.45 3.45 0 01.501-1.165c.272-.336.548-.649.828-.939.318-.344.59-.68.815-1.007.272-.336.485-.733.64-1.19a3.06 3.06 0 001.085-.7 5.55 5.55 0 00.828-.939c.272-.335.548-.648.828-.938.28-.29.638-.546 1.073-.769l-.164-.9c.929-.647 1.573-1.29 1.932-1.927.36-.638.782-1.455 1.266-2.45a14.13 14.13 0 011.162-.284c.322-.059.797-.194 1.425-.404.271-.86.557-1.509.858-1.946.301-.436.755-.948 1.361-1.536a6.283 6.283 0 002.336.287c.791-.097 1.568.118 2.33.646.147.545.388.954.724 1.227.326.226.676.448 1.049.666.364.172.733.366 1.105.584.373.218.652.572.837 1.063.23-.042.359-.114.389-.214.075-.11.232-.162.47-.158.16.352.307.635.441.849.134.214.264.405.39.572.171.16.324.346.458.56.181.206.346.461.497.768a16.661 16.661 0 00-.293 1.913c-.075.634-.368 1.116-.878 1.448.067.37.243.552.528.547.276-.05.467.082.572.396.121.407.116.766-.018 1.077a64.84 64.84 0 014.771 6.207 60.473 60.473 0 004.828 6.126c.026.662.167 1.304.423 1.925.293.566.61 1.128.949 1.686a30.5 30.5 0 011.088 1.66c.34.558.61 1.128.812 1.711.235.768.39 1.622.467 2.562.067.893.039 1.78-.086 2.662a11.17 11.17 0 01-.676 2.556c-.334.776-.767 1.404-1.298 1.883-.568 1.057-1.35 1.987-2.346 2.79a15.398 15.398 0 00-2.672 2.564 8.252 8.252 0 01-1.92 1.21c-.712.273-1.442.574-2.191.902a18.5 18.5 0 01-1.939 1.5c-.769.474-1.566.93-2.391 1.367-.824.438-1.657.829-2.498 1.173-.849.299-1.628.465-2.335.5-1.548.903-3.084 1.614-4.607 2.131-1.523.518-3.386.74-5.587.666zm-3.697-25.36a15.14 15.14 0 01-1.127 3.211c-.447.94-.89 1.904-1.329 2.89-.438.986-.795 2.03-1.07 3.129-.238 1.045-.258 2.24-.06 3.587 1.064.616 2.234.902 3.511.86a22.747 22.747 0 003.949-.653 60.803 60.803 0 003.904-1.287c1.293-.475 2.469-.81 3.528-1.004-.076-.415.07-.657.439-.724a14.561 14.561 0 005.096-2.579 179.825 179.825 0 014.674-3.717c.13-.596.34-1.136.633-1.618.293-.483.39-1.121.293-1.914a6.5 6.5 0 01-.672-.95c-.097-.268-.196-.68-.297-1.233a31.587 31.587 0 01-4.092-4.83 39.09 39.09 0 00-4.06-5.05c-.05.248-.193.512-.427.794-.234.281-.542.29-.923.026-.054.486-.202.847-.444 1.083a2.171 2.171 0 01-.929.384 3.005 3.005 0 01-1.074-.017 3.679 3.679 0 01-.999-.39 175.104 175.104 0 01-4.152 4.623 25.143 25.143 0 00-3.512 5.007c-.205.18-.335.252-.389.215-.055-.038-.211.014-.471.157zM225.364 27.287a3.064 3.064 0 00-.453-.918 13.667 13.667 0 00-.535-.975 16.708 16.708 0 01-.949-1.686c-.302-.612-.533-1.357-.693-2.234.008-.478.064-.822.168-1.032.097-.256.201-.466.314-.63l.049-1.296 1.036-.19a9.018 9.018 0 001.117-.133l1.174-.215a73 73 0 005.349-1.195 287.89 287.89 0 005.574-1.522 95.507 95.507 0 016.723-1.875c.138-.55.217-.898.238-1.045.067-.155.129-.333.188-.535l.684-.554c1.05-.24 1.812-.237 2.285.01.465.201.838.419 1.118.654 1.181-.312 2.38-.65 3.597-1.017 1.21-.412 2.465-.833 3.767-1.262 1.799-.568 3.622-1.14 5.467-1.717a46.302 46.302 0 015.462-1.358 33.7 33.7 0 012.222-.336c.699-.08 1.379-.133 2.04-.159l.943.471c.243.29.528.547.854.774.327.226.7.444 1.119.653.791.427 1.585.997 2.381 1.71.842.704 1.318 1.88 1.429 3.53l-.22.755c-.15.218-.347.445-.589.68l-.527 1.026-.759.14c-.461.084-.798.193-1.011.328a4.397 4.397 0 00-.778.428 8.364 8.364 0 01-.571.39 6.514 6.514 0 00-.722.348c-.515.046-.91.095-1.186.145l-.967.178c-1.381.253-2.861.619-4.439 1.099-1.577.48-3.105.974-4.582 1.483-1.079.34-2.113.673-3.101.997-.996.278-1.9.539-2.712.783a255.49 255.49 0 01-.662 3.412c-.2.99-.423 1.985-.669 2.984a53.545 53.545 0 00-.657 3.053c-.2.99-.356 2.091-.468 3.304a19.2 19.2 0 00-.939 2.676c-.234.806-.377 1.714-.431 2.725a7.844 7.844 0 00-1.052 2.84 50.52 50.52 0 01-.33 2.492l-.087 1.09c-.264.381-.425.673-.483.874-.012.194-.09.422-.232.687a10.857 10.857 0 01-.237 1.831c-.05.248-.095.519-.137.812-.05.248-.039.437.032.567 0 .524-.066.942-.2 1.252.051.277.078.558.082.844l.014.855c-.033.34-.048.653-.043.938-.004.24.061.466.195.68l.515.478c.172.159.329.369.472.629a.878.878 0 00.383.144c.146.02.274.069.383.144.427.256.806.377 1.137.364l.842.705c.579 1.61.561 2.949-.053 4.015-.635 1.213-1.919 1.997-3.853 2.35l-.979.109c-.382-.264-.604-.438-.667-.522a26.536 26.536 0 01-1.124-.295c-.293-.041-.584-.203-.873-.484a.474.474 0 00-.37-.075.883.883 0 01-.384-.144c-.485-.054-.883-.148-1.193-.282l-.835-.276c-.038-.47-.074-.797-.108-.982a7.34 7.34 0 01-1.201-1.497 22.707 22.707 0 01-.824-1.78c-.23-.483-.453-.919-.666-1.309a3.06 3.06 0 00-.686-1.019c-.681-3.213-.874-5.967-.579-8.263a89.838 89.838 0 011.105-6.854c.259-1.192.49-2.403.694-3.632.204-1.23.358-2.474.461-3.733l.621-.9c.272-.336.45-.536.533-.599a4.551 4.551 0 01.03-1.793 31.22 31.22 0 01.431-1.94c.117-.402.211-.8.282-1.195.117-.403.173-.747.169-1.033a5.536 5.536 0 00-.886.234c-.23.042-.479.112-.747.208a7.791 7.791 0 01-1.688.524c-.415.076-.718.108-.911.096-.334.252-.658.43-.972.535l-.967.177-1.657.304c-.553.101-.978.25-1.275.448l-1.243.228-.621.114-1.658.303c-.368.068-.786.12-1.255.159a5.242 5.242 0 01-1.551-.288l-.585-.466c-.369-.456-.672-.687-.911-.691l-.797-.069-.139-.76z" fill="#000"/>
    <path d="M277.354 55.674a3.614 3.614 0 01-1.068-1.163c-.231-.483-.675-.83-1.332-1.044-.218-.675-.5-1.434-.844-2.277a57.873 57.873 0 00-.988-2.68 69.771 69.771 0 01-.863-2.775c-.222-.96-.336-1.846-.341-2.656.016-.432.083-.85.2-1.252.163-.412.307-.796.432-1.153.163-.41.257-.81.281-1.196a1.86 1.86 0 00-.132-1.12c.267-.096.403-.264.407-.504.042-.293.255-.428.64-.403.137-1.074.31-2.084.519-3.028.208-.944.444-1.87.707-2.776l.788-2.72c.301-.96.538-2.005.713-3.134-.917-.595-1.636-1.274-2.155-2.037a19.17 19.17 0 01-1.24-2.492 26.157 26.157 0 01-.893-2.554 14.993 14.993 0 00-1.058-2.668 7.048 7.048 0 011.637-2.374 10.491 10.491 0 012.315-1.783c.9-.546 1.885-1.013 2.956-1.4 1.063-.433 2.191-.902 3.383-1.406 2.084-1.097 3.967-1.99 5.649-2.68a55.838 55.838 0 014.934-1.905 84.067 84.067 0 015.053-1.641c1.753-.56 3.766-1.263 6.038-2.108.071.13.153.187.245.17l.483-.089c.198.298.48.413.848.345a.78.78 0 00-.132-.333l-.063-.346c.092-.017.212-.015.358.006.193.012.339.033.44.062.146.021.261 0 .345-.063.075-.109.069-.275-.019-.497a7.856 7.856 0 002.582 2.03c.984.44 2.048.794 3.191 1.061.122.407.176.707.164.9.034.185.044.373.032.566a1.83 1.83 0 00.032.567c.033.184.13.453.289.805-.509 1.381-1.184 2.506-2.025 3.375a11.05 11.05 0 01-2.679 2.136 19.43 19.43 0 01-3.232 1.45c-1.117.396-2.277.823-3.478 1.282a28.187 28.187 0 00-3.508 1.5 15.475 15.475 0 00-3.357 2.332c-.394-.07-.748-.053-1.061.052-.277.05-.567.151-.873.303-.305.15-.657.31-1.054.479-.352.16-.812.244-1.381.253a3.33 3.33 0 01-1.186.932 61.3 61.3 0 01-1.375.681c.323.466.508.957.554 1.473.093.507.242.933.447 1.277 1.967-.17 4.108-.562 6.422-1.177 2.306-.66 4.579-1.244 6.818-1.75.088.223.094.389.019.498-.075.11-.092.279-.05.51.465.2.92.475 1.364.823l1.332 1.043c.481.294.955.54 1.419.742.457.155.957.158 1.501.011.314.42.564.874.749 1.365.184.49.212 1.034.083 1.63a56.524 56.524 0 00-2.353 2.362 27.862 27.862 0 01-2.459 2.168 15.242 15.242 0 01-2.812 1.802c-1.046.526-2.217.883-3.515 1.073l-.621.114c-.138.025-.339-.033-.603-.176-.419.315-1.023.522-1.814.619-.754.043-1.363.226-1.827.549-.687-.113-1.467-.089-2.342.071-.829.152-1.586.172-2.273.06a45.037 45.037 0 00-1.654 4.236 29.084 29.084 0 00-1.176 4.508c1.938-.07 3.524-.24 4.759-.515a41.048 41.048 0 003.471-.922c1.08-.34 2.183-.686 3.308-1.035 1.172-.358 2.614-.67 4.326-.935 1.05-.765 2.295-1.374 3.734-1.829a27.384 27.384 0 004.036-1.74c.486.053.927.259 1.325.615.39.31.761.648 1.113 1.012.389.31.77.574 1.143.792.373.218.804.234 1.294.05.272.188.461.44.565.754.151.306.275.594.372.862.142.26.299.47.471.629.164.113.425.113.785 0-.546 1.96-1.284 3.525-2.212 4.696a12.162 12.162 0 01-3.244 2.955c-1.242.752-2.69 1.423-4.343 2.011a153.1 153.1 0 00-5.429 1.925c-.49.185-.927.265-1.312.24a2.64 2.64 0 00-1.074-.017c-1.247.466-2.747.98-4.501 1.54a34.504 34.504 0 01-5.267 1.25 24.148 24.148 0 01-5.305.257c-1.733-.112-3.249-.597-4.548-1.456zM0 180.411l.772-.857-.196-1.466c.637-3.026 1.319-5.94 2.045-8.744.772-2.811 1.577-5.701 2.416-8.668l.763-2.858c.3-.961.574-1.941.82-2.94a2.323 2.323 0 01-.17-.541 2.473 2.473 0 010-.787c.475-1.041.83-1.964 1.064-2.77.28-.814.532-1.647.757-2.499.247-.999.516-2.002.808-3.009.338-1.016.795-2.03 1.372-3.041l.357-.781.773-.07a2.75 2.75 0 01.514-.309c.213-.134.481-.231.803-.29l1.281-.02a12.187 12.187 0 003.463-3.71c.953-1.558 1.86-3.369 2.72-5.434l.614-1.329 1.231.49c.256.096.65.167 1.181.213.532.046 1.09.11 1.677.194a28.71 28.71 0 012.982.312c.972.108 1.757.369 2.356.784l.459.56c.184.49.338.939.46 1.346l.503 1.195c.36.936.698 1.875 1.013 2.819.306.898.588 1.919.844 3.064.399.881.779 1.789 1.14 2.724.398.881.773 1.766 1.126 2.655a83.827 83.827 0 001.466 3.737 21.996 21.996 0 001.736 3.259c.46-.085.74-.112.841-.083.51-.332 1.13-.588 1.858-.769l.885-.234.428.78c.117.122.258.239.421.352.163.113.35.222.56.327.744-.089 1.303-.024 1.676.193.41.164.752.34 1.024.528l.408.283c.155.067.283.115.383.144l1.332.257-.451 1.442c-.33 1.062-.94 2.151-1.83 3.268a13.877 13.877 0 01-3.037 2.917c.151.306.252.597.302.874.097.269.225.579.384.931.353.889.667 1.833.945 2.831.314.944.5 1.959.555 3.046a16.861 16.861 0 01-1.064 3.557 13.033 13.033 0 01-1.743 2.966 12.27 12.27 0 01-2.49 2.387 9.291 9.291 0 01-3.177 1.369c-.67-.02-1.182-.093-1.538-.219-.31-.134-.597-.272-.86-.414-.42-.21-.752-.34-1-.39l-.973-.251.087-1.088c.07-.395-.011-.714-.246-.957-.188-.251-.578-.562-1.168-.93a4.631 4.631 0 01-.56-.327 5.328 5.328 0 00-.584-.465l-1.671-1.339 2.165-1.041c1.314-.622 2.15-1.252 2.51-1.89.35-.684.346-1.756-.016-3.216-1.193-.02-2.14.13-2.844.449-.711.274-1.418.57-2.121.89a101.41 101.41 0 01-2.969 1.33 18.82 18.82 0 01-3.264.885c-.783.143-1.624.226-2.524.247l-.772.07-.346-.723c-.017-.092-.103-.172-.258-.239a2.311 2.311 0 00-.34-.296 17.24 17.24 0 01-1.03-.955c-.406-.403-.58-.967-.523-1.693a3.526 3.526 0 01-.842-1.491c-.117.403-.211.802-.282 1.196l-.1 1.02-.112.951-.872.302a1.66 1.66 0 00-.2.466c-.013.193.012.332.075.416l.415.71-.577.75c-.067.155-.16.292-.282.409a2.33 2.33 0 00-.295.34c0 .525-.049 1.035-.149 1.53a16.77 16.77 0 01-.231 1.473c-.096.78-.195 1.538-.3 2.272a8.177 8.177 0 00.103 2.127l-.112.951a2.258 2.258 0 01-.746.995 9.642 9.642 0 01-.879.661c-.426.269-.715.513-.866.731l-.043.938-1.01.328c-.574.248-.994.421-1.262.517a4.298 4.298 0 01-.816.221l-.91.096c-.654-.453-1.19-.784-1.609-.993a4.554 4.554 0 00-1.325-.616l-.515-.478c-.252-.335-.426-.637-.522-.905a7.434 7.434 0 00-.384-.932c-.202-.583-.416-.973-.642-1.17L0 180.411zm18.748-22.032a45.867 45.867 0 00-1.335 3.248 6.4 6.4 0 01.885-.233c.323-.059.64-.141.955-.247a106.12 106.12 0 004.425-1.168 47.331 47.331 0 004.363-1.514c-.68-1.64-1.41-3.295-2.19-4.964a117.915 117.915 0 00-2.366-5.146l-.219.755a48.88 48.88 0 00-2.582 4.622c-.798 1.625-1.425 3.146-1.88 4.565l-.056.082zM53.495 171.255c-.222.088-.459-.035-.71-.371a9.698 9.698 0 00-.836-1.063l.76-.139c-.508-.956-.768-1.862-.782-2.718.025-.91.08-1.779.167-2.605.08-.873.12-1.691.124-2.455.041-.818-.175-1.613-.649-2.385.255.096.408.021.458-.227.088-.302.12-.642.1-1.019a3.85 3.85 0 00-.159-1.259 7.195 7.195 0 00-.27-1.095 25.12 25.12 0 00.573-4.683c.09-1.59.14-3.149.146-4.676a92.092 92.092 0 01.103-4.525c.107-1.498.324-2.921.65-4.268.627-.21 1.311-.24 2.052-.09.779.096 1.317.307 1.614.634 1.226-1.369 2.248-2.939 3.067-4.71a198.402 198.402 0 012.481-5.176 23.268 23.268 0 013.135-4.723c1.217-1.415 2.864-2.432 4.94-3.051 1.247.583 2.646 1.209 4.195 1.878a11.261 11.261 0 013.99 2.703c.41.163.802.354 1.175.572l1.23.489.19 1.039a7.556 7.556 0 011.98 1.854c.603.701 1.15 1.483 1.64 2.346.529.81 1.038 1.646 1.529 2.51.49.864 1.014 1.65 1.572 2.359a2.472 2.472 0 000 .787c.08.176.164.375.252.597.126.168.237.386.333.654.088.223.166.519.233.888.262 2.479-.181 4.611-1.331 6.395-1.112 1.73-2.592 3.265-4.441 4.605a49.989 49.989 0 01-5.912 3.586c-2.138 1.06-4.056 2.15-5.755 3.272.034.185.143.26.327.226.23-.042.325.084.283.378 1.532.577 2.713 1.052 3.543 1.425.875.364 1.668.672 2.38.923.75.197 1.537.338 2.361.426.871.079 2.05.149 3.536.211 1.486.061 2.641.136 3.466.223.862.033 1.628.059 2.298.08.661-.026 1.369-.06 2.122-.103a244.99 244.99 0 003.033-.198 6.367 6.367 0 011.571 1.572 9.299 9.299 0 011.07 1.95c.264.667.409 1.332.434 1.995.064.608-.032 1.126-.287 1.555.08.176.212.247.396.213.221-.088.452-.13.69-.126-.28.289-.506.617-.677.982l-.514 1.096a5.153 5.153 0 01-.664 1.051c-.226.328-.565.557-1.017.687-1.54.95-3.653 1.361-6.34 1.233-2.688-.127-6.173-.586-10.456-1.375-2.115-.375-3.848-.749-5.2-1.121a41.468 41.468 0 01-3.562-1.136 28.663 28.663 0 01-2.896-1.401 258.907 258.907 0 01-3.135-1.929.421.421 0 00-.225.327c.025.139-.027.243-.157.315.106 1.888.011 3.455-.285 4.701-.25 1.238-.726 2.542-1.428 3.91-.761-.003-1.255.159-1.481.486-.18.319-.433.628-.759.926-.443.177-.793.217-1.048.12a2.725 2.725 0 01-.685-.232 7.51 7.51 0 00-.697-.301c-.256-.096-.632-.075-1.13.064-.214-.39-.424-.757-.63-1.101-.213-.39-.615-.507-1.205-.351.062-.441.045-.796-.051-1.064a3.691 3.691 0 00-.359-.793l-.428-.78c-.096-.268-.109-.6-.038-.994zm17.297-35.858a17.32 17.32 0 01-1.56 2.79 51.07 51.07 0 00-1.807 2.619 14.913 14.913 0 00-1.41 2.834c-.393.978-.59 2.111-.594 3.399 1.892-.585 3.821-1.487 5.787-2.705 1.958-1.265 3.81-2.463 5.554-3.593-.542-1.665-1.388-2.917-2.54-3.755-1.16-.884-2.304-1.414-3.43-1.589zM103.687 161.989c-1.521-.771-2.857-1.837-4.01-3.2a25.35 25.35 0 01-2.885-4.478 33.652 33.652 0 01-1.926-5.084 52.281 52.281 0 01-1.098-5.235 17.89 17.89 0 01.901-3.67 22.786 22.786 0 011.46-3.343 34.025 34.025 0 011.787-3.117 128.956 128.956 0 001.937-3.073 1.47 1.47 0 01.798.068c.091-.541.288-1.03.588-1.467a7.88 7.88 0 01.998-1.184c.355-.399.715-.775 1.079-1.127.355-.399.633-.832.834-1.298 1.1-.487 2.041-1.065 2.824-1.733a25.645 25.645 0 002.321-2.142 30.707 30.707 0 012.252-2.129c.782-.668 1.724-1.246 2.824-1.734a5.68 5.68 0 011.305-1.455 67.711 67.711 0 011.7-1.241 16.705 16.705 0 001.632-1.229 4.048 4.048 0 001.21-1.581c.344.319.76.386 1.25.201.481-.232.916-.454 1.305-.669.268-.096.507-.092.716.012.209.105.4.237.572.396.209.105.364.172.464.201.147.021.26-.143.339-.491.377-.021.498.123.365.434l-.176.604c.444-.176.829-.152 1.156.075.364.171.877.244 1.538.219.273.188.375.36.309.515-.067.156-.094.399-.081.731 1.749.204 2.956.817 3.618 1.84.654.977.906 2.099.756 3.367-.157 1.221-.65 2.432-1.478 3.632-.79 1.147-1.754 1.991-2.892 2.533-1.36.631-2.628 1.244-3.804 1.841a46.55 46.55 0 00-3.294 1.891 21.147 21.147 0 00-2.874 2.244 11.682 11.682 0 00-2.164 2.613 14.53 14.53 0 00-3.244 2.168 26.608 26.608 0 00-2.509 2.677 44.194 44.194 0 00-2.101 2.96l-2.032 2.948c.143.784.114 1.409-.086 1.875a21.6 21.6 0 01-.671 1.411c.252.859.575 1.587.969 2.183.432.54.868 1.104 1.308 1.691 3.885.433 7.901.413 12.049-.061a282.197 282.197 0 0012.368-1.837c.515.478 1.073.925 1.672 1.339.636.361 1.208.757 1.715 1.188.553.424 1.007.96 1.364 1.61.394.596.606 1.368.636 2.316a31.42 31.42 0 01-2.139 2.752l-2.383 2.583c-.406.122-.913.214-1.519.278-.561.055-1.164.142-1.809.26-.598.109-1.211.269-1.839.48-.59.155-1.14.399-1.651.731a55.927 55.927 0 01-9.097.594c-3.157-.09-6.104-.337-8.842-.741a18.412 18.412 0 00-1.891-1.37c-.653-.453-1.461-.71-2.424-.772zM142.199 158.725c-.13.071-.23.042-.302-.088a1.326 1.326 0 01-.144-.403.869.869 0 01.144-.384c.121-.117.282-.147.483-.088-.733-.629-1.246-1.226-1.54-1.792-.247-.575-.681-1.259-1.301-2.051.112-.164.171-.365.175-.604a3.71 3.71 0 01.068-.8c.004-.239.044-.413.119-.522.113-.164.278-.17.496-.02-.185-.49-.26-.906-.227-1.245.033-.34.07-.657.112-.951a2.99 2.99 0 00.125-.881c-.005-.285-.133-.596-.384-.931.656-1.36.996-2.758 1.019-4.193.016-1.481-.059-2.802-.223-3.964.339-.492.583-1.109.733-1.851a9.118 9.118 0 00.299-2.273 11.827 11.827 0 00-.184-2.183c-.134-.739-.332-1.299-.591-1.68.012-.193.087-.302.225-.328.176-.08.383-.118.622-.114-.015-1.904-.182-3.996-.502-6.274a71.879 71.879 0 01-.496-6.633c-.019-2.19.22-4.141.717-5.854.488-1.758 1.542-3.024 3.161-3.797.533 1.094 1.132 2.033 1.798 2.817a50.619 50.619 0 002.194 2.245l2.388 2.138a20.673 20.673 0 012.3 2.44c.148 1.069.255 2.313.324 3.731.114 1.41.164 2.856.148 4.337.031 1.472.03 2.903-.002 4.292.014 1.38-.01 2.553-.072 3.518.088.222.278.354.571.396.285-.004.377.241.277.736a96.349 96.349 0 013.98-1.659 245.22 245.22 0 014.117-1.684 55.634 55.634 0 003.942-1.866 24.59 24.59 0 003.589-2.232 104.95 104.95 0 01-.163-6.765 20.015 20.015 0 00-1.061-6.601c.234-.281.414-.601.539-.957.125-.357.364-.615.715-.775a11.559 11.559 0 01-.951-3.259c-.172-1.208-.19-2.35-.053-3.424a7.715 7.715 0 011.109-2.921 4.801 4.801 0 012.277-1.991c.758.767 1.46 1.616 2.106 2.547.645.931 1.295 1.885 1.949 2.862a43.351 43.351 0 001.98 2.641 8.6 8.6 0 002.501 1.974 176.596 176.596 0 012.408 10.074 85.362 85.362 0 01-.34 6.357c-.153 2.031-.142 4.175.031 6.432a5.034 5.034 0 00-.62 1.687 70.576 70.576 0 00-.375 1.857 12.798 12.798 0 01-.388 1.788 4.621 4.621 0 01-.783 1.574c.302.612.439 1.231.41 1.856.009.571.292 1.21.849 1.919.353 1.414.388 2.647.104 3.7a7.197 7.197 0 01-1.354 2.752c-.618.781-1.396 1.472-2.333 2.073-.9.546-1.804 1.069-2.712 1.569a32.94 32.94 0 01-1.463-.59c-.427-.255-.93-.402-1.507-.439l.231-.686a20.59 20.59 0 01-2.947-2.465c-.838-.943-1.356-2.088-1.554-3.435a17.005 17.005 0 01-.026-.925c-.017-.616-.039-1.256-.064-1.919.02-.672.026-1.293.017-1.863.028-.625.039-.961.03-1.007-1.264.374-2.544.919-3.841 1.633a44.626 44.626 0 00-3.784 2.339 39.26 39.26 0 00-3.332 2.47 73.334 73.334 0 00-2.416 2.016c.026.139-.018.552-.13 1.24a33.752 33.752 0 01-.45 2.228 10.718 10.718 0 01-.764 2.072c-.268.621-.613.946-1.036.976.135.214.26.382.378.503.108.076.146.283.113.623-.74.374-1.399.805-1.977 1.292-.531.479-1.098.893-1.7 1.242-.594.395-1.287.641-2.078.738-.736.135-1.685.023-2.844-.337-.059-.323-.248-.575-.566-.755a4.349 4.349 0 00-1.024-.528c-.31-.134-.593-.249-.848-.345-.256-.096-.396-.214-.421-.352zM192.086 152.876a4.633 4.633 0 01-1.809-1.313 8.682 8.682 0 01-1.346-1.9 13.03 13.03 0 01-1.038-2.17 93.237 93.237 0 00-.981-2.252c-.118-.646-.064-1.133.162-1.461.217-.373.462-.728.733-1.064a26.307 26.307 0 002.919-.821c.85-.298 1.676-.593 2.48-.883a47.68 47.68 0 012.423-.802c.803-.29 1.688-.523 2.655-.701.43-1.557.826-3.036 1.189-4.438.354-1.448.698-2.822 1.032-4.123.066-1.204.218-2.329.455-3.374.276-1.099.541-2.125.795-3.078.246-.999.45-1.966.613-2.902.154-.982.184-1.989.091-3.021.258-1.716.472-3.281.643-4.696.208-1.468.254-3.17.139-5.104-1.699.598-3.052 1.132-4.061 1.603-1.016.424-1.734.794-2.152 1.109-.929.123-1.7.073-2.311-.149a4.406 4.406 0 01-1.458-.949 7.518 7.518 0 01-1.119-1.44 21.407 21.407 0 00-1.169-1.717c.108-.449.045-1.057-.19-1.825-.244-.814-.629-1.363-1.157-1.648.351-.16.573-.51.665-1.052.083-.587.03-1.007-.159-1.258a11.012 11.012 0 012.411-.871 53.029 53.029 0 012.517-.676c.858-.252 1.67-.496 2.436-.732.757-.282 1.378-.658 1.863-1.128 2.378-.531 4.847-1.079 7.408-1.643a272.072 272.072 0 007.188-1.675c.879.125 1.848.091 2.907-.103 1.105-.202 2.2-.331 3.284-.387 1.13-.064 2.151.059 3.064.369.959.3 1.705.999 2.237 2.093.708-.034 1.248.058 1.621.276.418.21.712.513.879.912.16.352.263.786.309 1.302l.253 1.384c-.636.689-1.496 1.323-2.579 1.903a33.682 33.682 0 01-3.509 1.501c-1.301.43-2.68.825-4.136 1.187-1.419.308-2.815.611-4.188.911.048 1.565-.038 3.44-.258 5.626a235.293 235.293 0 01-.629 6.339 396.122 396.122 0 00-.629 5.551c-.136 1.599-.14 2.625-.01 3.078-.266 1.145-.494 2.117-.681 2.914a50.825 50.825 0 01-.45 2.229c-.113.688-.248 1.38-.407 2.077-.12.642-.293 1.389-.519 2.241l4.696-.86c.185.49.455.798.811.924.356.126.731.224 1.124.295.394.071.75.196 1.068.376.356.126.576.419.66.881.917.07 1.532.315 1.847.735.314.419.453.918.416 1.497 0 .525-.133 1.097-.401 1.719a13.525 13.525 0 01-.701 1.63c-.432-.016-.802.171-1.111.561a6.897 6.897 0 00-.859 1.159c-1.369.06-2.686.277-3.949.652-1.264.375-2.44.709-3.528 1.004-.222.088-.289.244-.201.466.08.176.059.323-.062.441a12.107 12.107 0 00-4.521.255 27.848 27.848 0 00-4.431 1.528 308.339 308.339 0 00-4.507 1.898 22.337 22.337 0 01-4.777 1.59z" fill="#000"/>
    <path d="M221.624 106.264a3.005 3.005 0 00-.453-.918 13.328 13.328 0 00-.535-.975 16.789 16.789 0 01-.949-1.686c-.302-.613-.533-1.357-.693-2.234.008-.478.064-.822.169-1.032.096-.256.2-.466.313-.63l.049-1.296 1.036-.19a9.033 9.033 0 001.117-.133l1.174-.215a73 73 0 005.349-1.195 287.89 287.89 0 005.574-1.522 95.758 95.758 0 016.723-1.875c.138-.55.217-.898.238-1.045.067-.155.129-.334.188-.535l.684-.555c1.05-.24 1.812-.236 2.285.011.465.201.838.419 1.119.653 1.18-.311 2.379-.65 3.597-1.016 1.209-.412 2.464-.833 3.766-1.262 1.799-.568 3.622-1.14 5.467-1.717a46.301 46.301 0 015.462-1.358 33.646 33.646 0 012.222-.336c.699-.08 1.379-.133 2.041-.159l.942.471c.243.29.528.547.855.773.326.227.699.445 1.118.654.791.427 1.585.997 2.381 1.71.842.704 1.318 1.88 1.429 3.529l-.219.755a4.62 4.62 0 01-.59.68l-.527 1.027-.759.14c-.461.084-.797.193-1.011.327a4.392 4.392 0 00-.778.43 8.4 8.4 0 01-.571.39 6.514 6.514 0 00-.722.347c-.515.046-.91.095-1.186.145l-.967.178a40.26 40.26 0 00-4.438 1.099c-1.578.48-3.105.974-4.583 1.483-1.079.34-2.113.673-3.101.997-.996.278-1.9.539-2.711.783a273.588 273.588 0 01-.663 3.412c-.2.99-.423 1.985-.669 2.984a52.464 52.464 0 00-.656 3.053c-.2.99-.356 2.091-.468 3.304a19.22 19.22 0 00-.94 2.676c-.233.806-.377 1.714-.431 2.725a7.847 7.847 0 00-1.052 2.84 50.55 50.55 0 01-.33 2.492l-.087 1.089c-.264.382-.424.674-.483.875-.012.193-.09.422-.232.687a10.853 10.853 0 01-.237 1.831c-.05.248-.095.519-.137.812-.05.248-.039.437.032.567 0 .524-.066.942-.2 1.252.051.277.078.558.083.844l.013.855c-.033.34-.048.653-.043.938-.004.239.061.466.195.68l.515.478c.172.159.329.369.472.629a.89.89 0 00.383.144.884.884 0 01.383.144c.427.256.806.377 1.137.364l.842.704c.579 1.611.562 2.95-.053 4.016-.635 1.213-1.919 1.997-3.853 2.351l-.979.108c-.381-.264-.604-.438-.666-.522a26.73 26.73 0 01-1.125-.295c-.293-.042-.584-.203-.873-.484-.109-.075-.232-.1-.37-.075a.88.88 0 01-.383-.144c-.486-.054-.884-.148-1.194-.282l-.835-.276a11.37 11.37 0 00-.108-.982 7.292 7.292 0 01-1.2-1.497 22.443 22.443 0 01-.825-1.78 25.71 25.71 0 00-.666-1.309 3.065 3.065 0 00-.686-1.019c-.681-3.213-.874-5.967-.579-8.263a89.333 89.333 0 011.106-6.854c.258-1.192.489-2.403.693-3.632.204-1.23.358-2.474.461-3.733l.621-.901c.272-.335.45-.535.533-.598a4.553 4.553 0 01.03-1.794c.121-.642.265-1.288.432-1.938.116-.403.21-.802.281-1.196.117-.403.173-.747.169-1.033a5.474 5.474 0 00-.885.234c-.231.042-.48.112-.747.208a7.806 7.806 0 01-1.689.524c-.414.076-.718.108-.91.095a3.477 3.477 0 01-.973.536l-.967.177-1.657.304c-.553.101-.978.251-1.275.448a2588.128 2588.128 0 00-1.864.342l-1.657.303c-.369.068-.787.121-1.256.159a5.251 5.251 0 01-1.551-.288l-.585-.466c-.368-.457-.672-.687-.911-.691l-.797-.069-.139-.761z" fill="#000"/>
    <path d="M273.615 134.651a3.617 3.617 0 01-1.069-1.163c-.231-.483-.675-.831-1.332-1.044a32.927 32.927 0 00-.843-2.278 59.689 59.689 0 00-.989-2.68 69.294 69.294 0 01-.862-2.774c-.223-.961-.337-1.846-.342-2.656.016-.432.083-.85.2-1.253.163-.411.307-.795.432-1.152.163-.411.257-.81.282-1.196.07-.394.026-.768-.133-1.12.267-.097.403-.265.407-.504.042-.293.255-.428.64-.403.138-1.074.31-2.084.519-3.028.208-.944.444-1.869.707-2.776l.788-2.719c.301-.962.539-2.007.713-3.135-.917-.595-1.635-1.274-2.155-2.038a19.115 19.115 0 01-1.239-2.491 26.398 26.398 0 01-.894-2.554 14.995 14.995 0 00-1.058-2.668 7.05 7.05 0 011.637-2.374 10.494 10.494 0 012.315-1.783c.9-.546 1.885-1.013 2.956-1.4 1.063-.433 2.191-.902 3.384-1.406 2.083-1.097 3.966-1.99 5.648-2.68a55.885 55.885 0 014.934-1.906 84.373 84.373 0 015.053-1.64c1.753-.56 3.766-1.263 6.038-2.108.071.13.153.186.245.17l.484-.089c.197.298.479.413.848.345a.792.792 0 00-.133-.333 97.003 97.003 0 00-.063-.346c.092-.017.212-.015.358.006.193.012.339.033.44.062.146.021.261 0 .345-.063.075-.11.069-.275-.019-.497a7.856 7.856 0 002.582 2.03c.984.44 2.048.794 3.191 1.061.122.407.176.707.164.9.034.184.044.373.032.566a1.83 1.83 0 00.032.567c.034.184.13.453.29.805-.51 1.38-1.185 2.506-2.026 3.375a11.05 11.05 0 01-2.679 2.136 19.414 19.414 0 01-3.232 1.45 152.56 152.56 0 00-3.477 1.281 28.135 28.135 0 00-3.509 1.502 15.475 15.475 0 00-3.357 2.331c-.394-.07-.747-.053-1.061.052-.276.05-.567.151-.873.302-.305.152-.657.312-1.054.48-.352.16-.812.244-1.381.253-.31.39-.705.701-1.186.932-.435.223-.893.45-1.375.681.323.466.508.957.554 1.473.093.507.242.933.447 1.277 1.967-.17 4.108-.562 6.423-1.177a122.848 122.848 0 016.817-1.75c.088.223.094.389.019.498-.075.109-.092.279-.05.51.465.201.92.475 1.364.823l1.332 1.043c.481.294.955.541 1.42.742.456.155.956.158 1.5.011.315.419.564.874.749 1.365.184.491.212 1.034.083 1.63a56.336 56.336 0 00-2.353 2.362 27.763 27.763 0 01-2.459 2.167 15.172 15.172 0 01-2.811 1.803c-1.046.525-2.218.883-3.516 1.073l-.621.114c-.138.025-.339-.033-.603-.176-.418.315-1.023.522-1.814.619-.754.042-1.362.225-1.827.549-.686-.113-1.467-.089-2.342.071-.828.152-1.586.172-2.273.059a45.097 45.097 0 00-1.654 4.237 29.107 29.107 0 00-1.176 4.507c1.938-.068 3.525-.24 4.759-.514a41.137 41.137 0 003.472-.922c1.079-.341 2.182-.686 3.308-1.035 1.171-.358 2.613-.669 4.325-.935 1.05-.765 2.295-1.374 3.734-1.829a27.274 27.274 0 004.036-1.741c.486.054.928.26 1.326.616.389.31.76.647 1.112 1.012.389.31.771.574 1.143.792.373.218.804.234 1.294.049.272.189.461.44.566.755.151.306.274.593.371.862.142.26.3.47.471.629.164.113.425.113.785-.001-.546 1.96-1.284 3.526-2.212 4.697a12.177 12.177 0 01-3.243 2.955c-1.243.752-2.691 1.423-4.344 2.011a153.773 153.773 0 00-5.429 1.925c-.49.185-.927.265-1.312.24a2.656 2.656 0 00-1.074-.018 97.248 97.248 0 01-4.501 1.54 34.551 34.551 0 01-5.267 1.251 24.17 24.17 0 01-5.305.257c-1.733-.112-3.249-.597-4.547-1.456z" fill="#000"/>
    <path d="M319.145 122.519c-1.52-.771-2.857-1.837-4.009-3.2a25.347 25.347 0 01-2.886-4.478 33.588 33.588 0 01-1.926-5.084 51.943 51.943 0 01-1.097-5.235c.187-1.322.487-2.545.9-3.67.405-1.17.892-2.285 1.46-3.343a34.109 34.109 0 011.787-3.117 124.673 124.673 0 001.937-3.073c.277-.05.542-.028.798.068.091-.54.288-1.03.589-1.466.301-.437.633-.832.997-1.185.355-.399.715-.774 1.079-1.127.355-.4.633-.831.834-1.297 1.1-.488 2.042-1.066 2.824-1.734a25.717 25.717 0 002.321-2.142 30.733 30.733 0 012.252-2.129c.783-.668 1.724-1.246 2.824-1.733a5.668 5.668 0 011.305-1.455 68.083 68.083 0 011.7-1.242 16.655 16.655 0 001.632-1.228c.539-.433.943-.96 1.21-1.581.344.318.76.385 1.25.2.481-.231.916-.454 1.305-.668.268-.097.507-.093.716.012.21.104.4.236.572.395.209.105.364.172.465.201.146.021.259-.142.338-.49.377-.022.499.123.365.433l-.175.605c.443-.177.828-.152 1.155.074.364.172.877.245 1.539.219.272.188.375.36.308.516-.067.155-.094.398-.081.73 1.75.204 2.956.817 3.618 1.84.654.977.906 2.1.757 3.367-.158 1.221-.651 2.432-1.479 3.633-.79 1.146-1.754 1.99-2.892 2.532-1.36.63-2.628 1.245-3.803 1.841a46.262 46.262 0 00-3.295 1.892 21.165 21.165 0 00-2.874 2.243 11.702 11.702 0 00-2.164 2.614 14.53 14.53 0 00-3.244 2.168 26.63 26.63 0 00-2.509 2.677 43.686 43.686 0 00-2.101 2.96l-2.032 2.947c.143.784.115 1.41-.086 1.875-.2.466-.424.936-.67 1.411.252.86.575 1.587.969 2.183.431.541.867 1.105 1.307 1.692 3.885.432 7.902.412 12.049-.062 4.186-.528 8.309-1.14 12.368-1.836.516.478 1.073.924 1.672 1.339.636.36 1.208.756 1.715 1.188.553.423 1.008.96 1.364 1.61.394.595.606 1.367.636 2.315a31.405 31.405 0 01-2.138 2.752l-2.384 2.583a8.385 8.385 0 01-1.519.278c-.561.055-1.164.142-1.808.26-.599.109-1.212.269-1.84.48-.59.156-1.14.399-1.65.731-2.918.439-5.95.637-9.098.594-3.156-.089-6.103-.336-8.841-.741a18.423 18.423 0 00-1.892-1.37c-.653-.453-1.461-.71-2.424-.772zM351.451 82.481a3.017 3.017 0 00-.453-.918 14.066 14.066 0 00-.534-.975 16.698 16.698 0 01-.95-1.686c-.302-.613-.533-1.357-.693-2.234.008-.478.065-.822.169-1.032.096-.256.201-.466.313-.63l.049-1.296 1.036-.19a9.01 9.01 0 001.118-.133l1.174-.215a73.144 73.144 0 005.348-1.195c1.817-.476 3.675-.983 5.575-1.522a95.453 95.453 0 016.723-1.875c.137-.55.217-.898.237-1.045.067-.155.13-.334.188-.535l.684-.555c1.051-.24 1.813-.236 2.286.011.465.2.837.419 1.118.653 1.18-.311 2.379-.65 3.597-1.016 1.209-.412 2.465-.833 3.766-1.262 1.8-.568 3.622-1.14 5.468-1.717a46.286 46.286 0 015.461-1.358 33.839 33.839 0 012.223-.336c.699-.08 1.379-.133 2.04-.16l.942.472c.243.29.528.547.855.773a9.17 9.17 0 001.118.654c.792.427 1.586.997 2.382 1.71.842.704 1.318 1.88 1.428 3.529l-.219.755a4.615 4.615 0 01-.59.68l-.526 1.027-.76.14c-.46.084-.797.193-1.01.327a4.396 4.396 0 00-.779.429 8.123 8.123 0 01-.571.39 6.526 6.526 0 00-.721.348c-.515.046-.911.095-1.187.145l-.967.178c-1.381.253-2.86.619-4.438 1.099-1.578.48-3.105.974-4.582 1.483-1.08.34-2.114.673-3.101.997-.996.278-1.9.539-2.712.783a272.136 272.136 0 01-.662 3.412c-.2.99-.423 1.985-.67 2.984a53.545 53.545 0 00-.656 3.052c-.2.99-.356 2.092-.468 3.305a19.2 19.2 0 00-.939 2.676c-.234.805-.378 1.714-.431 2.725a7.827 7.827 0 00-1.052 2.84 49.19 49.19 0 01-.331 2.492l-.087 1.089c-.263.382-.424.674-.483.875-.012.193-.089.422-.231.687a11.062 11.062 0 01-.237 1.831c-.05.248-.096.518-.138.812-.05.248-.039.437.032.567.001.524-.066.942-.199 1.252.05.277.078.558.082.843l.013.856c-.033.34-.047.653-.043.938-.004.239.061.466.196.68l.515.478c.172.159.329.368.471.628a.878.878 0 00.383.145.889.889 0 01.384.144c.427.256.806.377 1.136.364l.842.704c.58 1.611.562 2.949-.052 4.016-.636 1.213-1.92 1.997-3.854 2.351l-.979.108c-.381-.264-.603-.438-.666-.522a26.234 26.234 0 01-1.124-.295c-.293-.042-.584-.203-.873-.484-.109-.075-.233-.1-.371-.075a.89.89 0 01-.383-.144c-.486-.054-.883-.148-1.193-.282l-.836-.277a11.94 11.94 0 00-.107-.981 7.33 7.33 0 01-1.201-1.497 22.44 22.44 0 01-.824-1.78 26.52 26.52 0 00-.667-1.309 3.063 3.063 0 00-.685-1.019c-.681-3.213-.874-5.967-.579-8.263a89.862 89.862 0 011.105-6.854c.258-1.192.49-2.403.694-3.633.204-1.229.357-2.473.461-3.732l.621-.9c.271-.337.449-.536.533-.599-.11-.6-.1-1.198.03-1.794.12-.642.264-1.288.431-1.939.117-.402.211-.801.281-1.195.117-.403.174-.748.169-1.033a5.551 5.551 0 00-.885.234c-.23.042-.479.112-.747.208a7.777 7.777 0 01-1.689.524c-.414.076-.717.108-.91.095-.335.252-.659.431-.973.536-.322.06-.644.118-.967.177l-1.657.304c-.552.101-.977.25-1.274.448l-1.243.228-.622.113-1.657.304c-.368.068-.787.12-1.256.159a5.245 5.245 0 01-1.551-.288l-.584-.466c-.369-.457-.673-.687-.911-.691l-.798-.069-.139-.761z" fill="#000"/>
    <path d="M395.21 82.548c.011-.718.003-1.288-.027-1.712-.038-.47-.288-.925-.749-1.365.05-.772.083-1.374.099-1.806.063-.441-.02-1.022-.246-1.744.195-1.275.632-2.404 1.309-3.387a13.76 13.76 0 012.453-2.595 16.726 16.726 0 012.911-2.035 41.334 41.334 0 012.919-1.608c-.034-.184-.143-.26-.327-.226-.184.034-.251-.073-.201-.32a50.501 50.501 0 007.092-3.374 108.959 108.959 0 017.305-3.77 39.982 39.982 0 017.853-2.727c2.728-.69 5.692-.876 8.89-.555.285.52.635 1.004 1.05 1.452l1.244 1.346c.453.394.859.796 1.22 1.207.36.411.61.866.748 1.365.645.407 1.183.88 1.615 1.421.469.486.677 1.235.624 2.246-.439.462-.901.928-1.387 1.399-.485.47-.997.922-1.537 1.354a20.624 20.624 0 00-6.316.585 130.589 130.589 0 00-5.505 1.51c-.607-.462-1.252-.606-1.934-.433-.691.126-1.407.377-2.147.75a40.14 40.14 0 00-2.096 1.029c-.703.32-1.385.492-2.047.518-.422.554-1.031 1-1.826 1.336a41.03 41.03 0 01-2.561.826c-.004.24.072.392.227.46.155.067.211.247.17.54.398.357.89.577 1.476.66l1.733.112c.624.029 1.191.14 1.702.332.502.146.873.484 1.112 1.012.837-.106 1.593-.006 2.267.3.666.26 1.256.628 1.772 1.106a5.592 5.592 0 011.226 1.635c.293.567.463 1.108.51 1.624.268.427.486.578.653.452.213-.134.488-.065.823.207.31.659.859 1.32 1.647 1.987a8.286 8.286 0 012.03 2.132c.344 1.368.641 2.6.889 3.7a6.784 6.784 0 01.04 3.354 17.566 17.566 0 01-2.386 6.088 27.17 27.17 0 01-4.259 5.215 43.023 43.023 0 01-5.289 4.26 59.16 59.16 0 01-5.743 3.341c-.192-.013-.422.029-.69.126-.222.088-.293-.042-.214-.39a2.893 2.893 0 01-1.324.958 7.051 7.051 0 01-1.714.385c-.598.11-1.224.201-1.877.273a7.91 7.91 0 00-1.783.398 23.829 23.829 0 01-1.238-.918 5.163 5.163 0 01-.93-1.188c-.239-.004-.379-.122-.421-.353-.004-.285-.122-.406-.352-.364-.034-.185-.036-.327-.007-.428l.088-.302c.159-.173.211-.277.157-.315-.017-.092-.099-.149-.245-.17a2.333 2.333 0 00-.396-.214c-.109-.075-.153-.186-.132-.333.154-.457.135-.955-.058-1.491l-.466-1.775a4.927 4.927 0 01-.165-1.686c.037-.579.344-1.113.921-1.6 1.922-.161 3.677-.578 5.267-1.251a25.496 25.496 0 004.488-2.395 46.99 46.99 0 003.902-2.861 89.176 89.176 0 013.615-2.88c.053-.487.189-.917.406-1.29.264-.382.531-.741.803-1.077.264-.382.504-.76.721-1.134.209-.42.336-.896.382-1.429.012-.193-.013-.331-.076-.415a.458.458 0 00-.245-.17l-.327-.226c-.108-.075-.18-.206-.213-.39l-.44-.063a.624.624 0 00-.289-.018 25.486 25.486 0 00-4.076-.827c-1.41-.171-2.623-.426-3.636-.765-.485.47-1.021.664-1.607.58a23.673 23.673 0 00-2.103-.186 51.715 51.715 0 01-5.626.458c-1.754.035-3.5-.146-5.237-.543a2.47 2.47 0 00-.472-.629c-.18-.205-.515-.215-1.004-.03a9.496 9.496 0 00-1.263-1.056 10.325 10.325 0 01-1.15-1.22zM142.106 229.111c-1.52-.77-2.856-1.837-4.009-3.2a25.347 25.347 0 01-2.886-4.478 33.79 33.79 0 01-1.926-5.083 52.578 52.578 0 01-1.097-5.236c.187-1.322.487-2.545.901-3.67a22.722 22.722 0 011.46-3.343 34.093 34.093 0 011.786-3.117 127.01 127.01 0 001.938-3.073c.276-.051.542-.028.797.069a3.612 3.612 0 01.589-1.467c.301-.437.634-.832.997-1.185.356-.398.715-.774 1.079-1.127.356-.399.634-.831.834-1.297 1.101-.488 2.042-1.066 2.824-1.734a25.645 25.645 0 002.321-2.142 31.142 31.142 0 012.253-2.129c.782-.668 1.723-1.246 2.824-1.733a5.66 5.66 0 011.304-1.455 69.706 69.706 0 011.701-1.242 16.563 16.563 0 001.631-1.228c.54-.433.943-.96 1.211-1.581.343.318.76.385 1.249.2.481-.231.917-.454 1.306-.668.268-.097.506-.093.716.012.209.104.4.236.571.396.21.104.365.171.465.201.147.02.26-.143.339-.492.376-.021.498.124.364.434l-.175.605c.444-.177.829-.152 1.155.074.365.172.878.245 1.539.219.272.189.375.36.308.516-.067.155-.094.398-.081.73 1.75.204 2.956.817 3.619 1.841.653.977.906 2.099.756 3.366-.158 1.221-.651 2.432-1.478 3.633-.791 1.146-1.755 1.99-2.893 2.532-1.36.631-2.627 1.245-3.803 1.842a45.803 45.803 0 00-3.295 1.891 21.14 21.14 0 00-2.874 2.243 11.688 11.688 0 00-2.163 2.614 14.503 14.503 0 00-3.245 2.168 26.615 26.615 0 00-2.509 2.677 44.3 44.3 0 00-2.101 2.96l-2.031 2.947c.143.784.114 1.41-.086 1.876a21.58 21.58 0 01-.671 1.41c.252.86.575 1.588.969 2.183a72.54 72.54 0 011.308 1.692c3.885.433 7.901.412 12.049-.062 4.185-.528 8.308-1.14 12.368-1.836.515.478 1.072.924 1.671 1.339.637.36 1.208.756 1.715 1.188.553.423 1.008.96 1.364 1.61.394.595.607 1.367.637 2.315a31.614 31.614 0 01-2.139 2.752l-2.384 2.583a8.385 8.385 0 01-1.519.278c-.561.055-1.163.142-1.808.26-.598.11-1.212.27-1.839.48a5.66 5.66 0 00-1.651.732c-2.917.439-5.95.636-9.098.593-3.156-.089-6.103-.336-8.841-.741a18.412 18.412 0 00-1.891-1.37c-.654-.452-1.462-.71-2.425-.772zM183.481 225.108a3.273 3.273 0 01-.597-.534 4.638 4.638 0 01-.535-.975 9.265 9.265 0 01-2.011-2.421 14.939 14.939 0 01-1.328-2.976 16.233 16.233 0 01-.674-3.31 21.277 21.277 0 01-.085-3.203c.054-.487.081-.993.08-1.517.071-.919.145-1.815.224-2.688.07-.919.285-1.697.644-2.335-.276-.474-.354-1.032-.233-1.674.12-.642.25-1.238.387-1.788a3.33 3.33 0 00.144-.384c.021-.147.046-.27.075-.371l.743-4.929c.275-1.624.539-3.174.793-4.651.458-2.707.879-5.359 1.261-7.957.429-2.606.736-5.356.922-8.251.318-.345.606-.588.866-.731.083-.063.19-.131.32-.202.13-.071.287-.124.471-.158 1.059.331 2.275.609 3.649.834 1.41.171 2.576.172 3.497.003l1.363.823a11.977 11.977 0 011.923 1.937c.595.654.91 1.598.945 2.831-.201.466-.385.762-.552.888a26.42 26.42 0 01-.38 3.002c-.179.844-.363 1.664-.551 2.462-.216.898-.41 1.792-.581 2.681-.171.89-.262 1.956-.273 3.198-.218.373-.351.684-.401.932a4.028 4.028 0 01-.081.73c-.042.293-.102.614-.182.963a2.417 2.417 0 01-.482.875c.076 1.464.015 2.692-.185 3.682l-.626 2.833c-.35 1.733-.654 3.458-.912 5.174-.266 1.67-.26 3.529.018 5.576a6.366 6.366 0 011.481-.486 5.474 5.474 0 011.777-.039c1.506-1.135 3.209-1.971 5.109-2.51a86.48 86.48 0 015.807-1.421 46.333 46.333 0 004.451-1.03c.519.238.852.368.998.389l.691-.126.414-.076c.138-.026.327-.036.565-.032.763.528 1.468.875 2.117 1.042.641.122 1.328.234 2.06.338.641.121 1.263.27 1.865.446a7.272 7.272 0 011.904.652l1.265 3.417c.461.44.685.756.673.949a1.74 1.74 0 01-.1 1.02l.302.874c-.841.345-1.378.658-1.613.94a6.248 6.248 0 00-.759.926c-.498.138-.977.25-1.437.334-.921.169-1.839.48-2.756.934-1.473-.254-3.039-.23-4.696.074a28.116 28.116 0 00-3.886.998l-2.021.656c-.683.173-1.369.323-2.059.449-.536.194-.915.334-1.137.423a3.941 3.941 0 00-.652.334 122.82 122.82 0 01-4.833 2.459 20.345 20.345 0 01-5.317 1.761c-2.716.497-5.029.206-6.939-.875-.259-.382-.448-.633-.565-.755a4.434 4.434 0 01-.365-.434zM220.654 185.538c-.201-.583-.384-.931-.547-1.044.171-.89.254-1.74.249-2.55.032-.864.027-1.674-.015-2.429a79.285 79.285 0 01-.052-1.85 16.5 16.5 0 01.193-1.681c.749-.328 1.266-.756 1.55-1.285.322-.584.564-1.081.727-1.492.82-.198 1.371-.18 1.651.055.327.226.71.633 1.15 1.22.323.465.746.96 1.27 1.484.515.478 1.217.802 2.104.973.231.483.481.938.749 1.365.268.428.564.875.886 1.34a46.885 46.885 0 011.73 2.831c.553.947.937 1.879 1.151 2.793-.359 1.163-.573 2.466-.643 3.909a32.538 32.538 0 00.218 4.323c.206 1.393.496 2.723.87 3.99.374 1.267.801 2.309 1.284 3.126l.616 1.032 1.494-.417a40.762 40.762 0 004.236-2.206 24.12 24.12 0 003.376-2.622 28.739 28.739 0 002.86-3.099 47.821 47.821 0 002.697-3.999 25.43 25.43 0 002.174-4.904c.572-1.822.974-3.66 1.207-5.515.278-1.863.419-3.701.422-5.513a41.675 41.675 0 00-.275-5.028c.799-.576 1.16-1.334 1.084-2.273l-.371-.862c-.18-.206-.287-.401-.321-.585.004-.24.035-.46.094-.661.175-1.129.814-2.057 1.919-2.784.929.402 1.798.863 2.607 1.382a27.613 27.613 0 012.356 1.572c.319 1.229.701 2.279 1.145 3.152.436.826.891 1.625 1.365 2.396.465.726.88 1.437 1.245 2.133.411.687.759 1.554 1.045 2.598a30.082 30.082 0 00-.317 4.135c.035 1.234.082 2.536.142 3.908l.001.787a193.45 193.45 0 00-1.678 4.885 75.91 75.91 0 00-1.227 4.231c-.226.327-.42.697-.583 1.108l-.351 1.209c-.066.155-.163.411-.288.768-.079.348-.175.604-.288.768l-1.771-.319-.023 2.221-1.054.48-.652 1.12c-.723 2.04-1.569 3.793-2.539 5.258a21.48 21.48 0 01-3.33 4.043c-1.251 1.231-2.717 2.453-4.398 3.667a165.93 165.93 0 01-5.723 3.838c-.946.031-1.764.109-2.455.235l-1.959.216c-.644.118-1.27.209-1.877.273-.607.063-1.31.12-2.11.171-.259-.381-.567-.635-.923-.76-.356-.126-.672-.163-.949-.113-1.004-.292-1.813-.812-2.425-1.558a75.414 75.414 0 01-1.955-2.503 26.785 26.785 0 00-1.062-1.522 7.905 7.905 0 00-1.188-1.428l1.305-.668-2.174-1.748a4.637 4.637 0 00-.559-.327 4.65 4.65 0 01-.503-.408l-.24-1.315a220.65 220.65 0 01-2.182-10.402c-.543-3.238-.623-6.156-.24-8.754l.075-.371z" fill="#000"/>
    <path d="M270.734 177.222c-2.077-.43-3.89-1.243-5.44-2.437-1.504-1.203-2.824-2.701-3.96-4.496a7.296 7.296 0 011.642-3.52 15.593 15.593 0 012.98-2.835 24.154 24.154 0 013.809-2.2 90.346 90.346 0 013.967-1.728c.293.042.431.017.414-.076-.016-.092.107-.067.371.076 1.565-.812 3.387-1.646 5.467-2.504 2.071-.904 4.339-1.51 6.804-1.819.289-.243.663-.407 1.124-.492.452-.13.931-.242 1.437-.335l1.451-.265c.452-.131.826-.295 1.123-.492.335.272.787.404 1.357.395.561-.055 1.178.07 1.852.376.193.012.18-.057-.037-.208-.227-.197-.233-.362-.02-.497.599-.11 1.153-.068 1.664.124.511.193.984.44 1.42.742.473.247.896.479 1.269.697.419.21.835.276 1.25.2a10.91 10.91 0 001.715 1.188c.674.306 1.307.643 1.897 1.012.637.36 1.167.788 1.59 1.282.469.487.767 1.076.893 1.768.005.285.126.43.365.434a.642.642 0 01.559.327c.357 1.699.35 3.226-.021 4.581a15.202 15.202 0 01-1.51 3.854 34.212 34.212 0 01-2.301 3.425 28.086 28.086 0 00-2.151 3.47 15.062 15.062 0 002.218 1.597l2.513 1.256c.838.419 1.638.892 2.4 1.42.8.474 1.502 1.06 2.105 1.76.189.252.521.382.999.39.239.528.528 1.071.868 1.629.377.503.731 1.011 1.062 1.522.323.466.545.902.667 1.309.122.406.07.774-.156 1.101.356.126.595.392.717.799.113.36.168.66.164.9-.786 1.431-1.317 2.434-1.593 3.009-.275.575-.484.995-.626 1.26a7.918 7.918 0 01-.439.724c-.151.218-.498.663-1.041 1.335a72.135 72.135 0 01-6.934 5.419 32.234 32.234 0 01-7.788 3.859c-.172.365-.471.682-.897.951-.373.306-.822.58-1.349.819-.528.24-1.105.465-1.733.675-.582.202-1.117.396-1.607.581a.642.642 0 01-.502-.409c-.034-.184-.174-.302-.421-.352.054.562-.148.886-.609.97-.406.122-.952.127-1.638.014a11.5 11.5 0 01-2.18-.602 25.232 25.232 0 01-2.01-.848 9.754 9.754 0 01-.658 1.48c-.238.52-.524.906-.859 1.158l-1.488.058c-.285.005-.54.171-.766.498-.402-.117-.716-.274-.942-.471a7.632 7.632 0 01-.666-.522 3.277 3.277 0 00-.71-.37c-.264-.143-.638-.241-1.124-.295.05-.248-.082-.581-.396-1-.323-.466-.7-.707-1.131-.723.163-.411-.014-.856-.529-1.334a7.477 7.477 0 01-1.333-1.83 7.124 7.124 0 00-.107-.982 22.83 22.83 0 01-.039-.994c.033-.34.098-.638.194-.894s.297-.46.602-.611a4.07 4.07 0 00-.868-1.629c.356-.399.56-.842.614-1.329.046-.533.068-1.061.068-1.586.045-.533.118-1.047.218-1.542a2.77 2.77 0 01.671-1.41 2.35 2.35 0 00-.34-.296c-.108-.075-.184-.228-.226-.459.48-1.28.787-2.338.92-3.173a18.14 18.14 0 00.192-2.467c.042-.818.074-1.683.099-2.593.024-.911.19-2.086.499-3.525-.198-.822-.24-1.577-.128-2.266.112-.688.229-1.353.35-1.995.158-.697.243-1.404.255-2.121.012-.718-.158-1.521-.511-2.41-.765.235-1.29.618-1.574 1.147-.239.52-.332 1.181-.281 1.982-.347.445-.843.727-1.488.845-.653.072-1.215.247-1.688.524zm32.821 7.793c-1.926-.649-3.643-.93-5.15-.845-1.46.077-2.837.353-4.13.828a24.722 24.722 0 00-3.578 1.514 25.58 25.58 0 01-3.44 1.488 158.55 158.55 0 00-.918 5.533c-.299 2.01-.584 3.97-.854 5.879 1.615-.534 3.071-1.158 4.368-1.873a52.5 52.5 0 003.728-2.256c1.179-.836 2.34-1.645 3.482-2.427a49.755 49.755 0 013.565-2.369 2.243 2.243 0 01.658-1.48c.401-.407.807-.792 1.217-1.153.401-.407.729-.825.984-1.253.255-.428.278-.957.068-1.586zm-8.785-20.78a34.923 34.923 0 00-8.286 2.305c-2.653 1.106-4.818 2.408-6.495 3.908a23.754 23.754 0 003.21 1.558c1.122.414 2.029 1.083 2.721 2.005 2.05-1.282 3.781-2.743 5.195-4.385a32.884 32.884 0 003.655-5.391z" fill="#000"/>
</svg>
